<?xml version="1.0" standalone="no"?><!DOCTYPE svg PUBLIC "-//W3C//DTD SVG 1.1//EN" "http://www.w3.org/Graphics/SVG/1.1/DTD/svg11.dtd"><svg t="1706839490400" class="icon" viewBox="0 0 1170 1024" version="1.1" xmlns="http://www.w3.org/2000/svg" p-id="6312" xmlns:xlink="http://www.w3.org/1999/xlink" width="228.515625" height="200"><path d="M893.952 31.670857c112.64 0 204.361143 89.234286 210.797714 201.508572l0.365715 12.507428v135.094857a43.885714 43.885714 0 0 1-87.186286 7.094857l-0.585143-7.094857-0.073143-0.438857h-863.085714v402.724572c0 66.267429 49.737143 120.32 112.859428 125.805714l10.605715 0.512h616.301714a121.417143 121.417143 0 0 0 85.577143-35.328 43.885714 43.885714 0 0 1 61.659428 62.464 209.188571 209.188571 0 0 1-132.169142 60.050286l-15.067429 0.585142H277.650286c-112.64 0-204.434286-89.234286-210.797715-201.508571l-0.365714-12.580571V245.76c0-113.810286 87.771429-207.140571 198.729143-213.650286l12.434286-0.365714h616.301714z m-515.657143 437.467429L474.697143 561.737143l96.475428-92.525714a30.134857 30.134857 0 0 1 41.252572 0 27.209143 27.209143 0 0 1 0 39.570285l-67.291429 64.585143h29.476572c16.091429 0 29.184 12.434286 29.184 27.940572a28.598857 28.598857 0 0 1-29.257143 28.013714H503.954286v35.766857h70.729143c16.091429 0 29.184 12.507429 29.184 27.940571a28.598857 28.598857 0 0 1-29.257143 28.013715H503.954286v77.677714a28.598857 28.598857 0 0 1-29.184 27.940571 28.598857 28.598857 0 0 1-29.184-27.940571V721.042286h-70.729143a28.598857 28.598857 0 0 1-29.184-28.013715c0-15.433143 13.092571-27.940571 29.257143-27.940571h70.656v-35.84h-70.729143a28.598857 28.598857 0 0 1-29.184-27.940571c0-15.433143 13.092571-27.940571 29.257143-27.940572h29.330285l-67.291428-64.585143a27.282286 27.282286 0 0 1 0-39.643428 30.134857 30.134857 0 0 1 41.325714 0zM1010.614857 512c8.192 0 15.579429 3.364571 21.211429 8.704l105.764571 100.278857a34.596571 34.596571 0 0 1-0.146286 49.664l-105.545142 100.498286a31.451429 31.451429 0 0 1-21.211429 8.557714 32.621714 32.621714 0 0 1-31.744-33.426286v-0.731428h-0.146286v-45.129143H804.571429V591.286857h174.299428v-43.885714c0.219429-0.585143 0.146286-1.243429 0.146286-1.901714 0-18.505143 14.189714-33.499429 31.670857-33.499429z m-116.736-392.557714H277.650286c-64.365714 0-117.540571 50.614857-122.953143 115.346285l-0.438857 10.971429-0.073143 46.811429h863.085714v-46.811429c0-66.267429-49.737143-120.393143-112.713143-125.805714l-10.605714-0.512z" fill="#0c99e2" p-id="6313"></path></svg>