<?xml version="1.0" standalone="no"?><!DOCTYPE svg PUBLIC "-//W3C//DTD SVG 1.1//EN" "http://www.w3.org/Graphics/SVG/1.1/DTD/svg11.dtd"><svg t="1706839078182" class="icon" viewBox="0 0 1024 1024" version="1.1" xmlns="http://www.w3.org/2000/svg" p-id="2460" width="200" height="200" xmlns:xlink="http://www.w3.org/1999/xlink"><path d="M512 0a512 512 0 1 1 0 1024A512 512 0 0 1 512 0z m0 87.771429a424.228571 424.228571 0 1 0 0 848.457142A424.228571 424.228571 0 0 0 512 87.771429zM367.908571 261.12a41.398857 41.398857 0 0 1 55.076572 12.434286l1.755428 2.779428 84.114286 156.598857 90.404572-156.525714a41.398857 41.398857 0 0 1 56.758857-15.286857 41.398857 41.398857 0 0 1 15.286857 56.832l-72.484572 114.541714h102.838858c23.113143 0 41.545143 18.505143 41.545142 41.545143a41.398857 41.398857 0 0 1-38.619428 41.545143l-2.925714 0.073143L553.618286 512v72.265143l148.041143-0.073143c23.113143 0 41.545143 18.505143 41.545142 41.545143a41.398857 41.398857 0 0 1-38.619428 41.545143l-2.925714 0.073143H553.618286v129.097142a41.398857 41.398857 0 0 1-38.619429 41.472l-2.925714 0.073143a41.398857 41.398857 0 0 1-41.545143-38.546285l-0.146286-2.998858 0.146286-126.537142-148.187429-2.56a41.398857 41.398857 0 0 1-41.545142-41.545143 41.398857 41.398857 0 0 1 38.619428-41.545143l2.925714-0.073143 148.041143 0.073143 0.146286-68.754286-148.187429 0.146286a41.398857 41.398857 0 0 1-41.545142-41.545143 41.398857 41.398857 0 0 1 38.619428-41.545143l2.925714-0.073143 97.792 0.438857-67.364571-114.980571a41.398857 41.398857 0 0 1 15.140571-56.832z" fill="#07a371" p-id="2461"></path></svg>